<?xml version="1.0" encoding="UTF-8"?>
<svg version="1.1" xmlns="http://www.w3.org/2000/svg" width="112" height="157">
<path d="M0 0 C36.96 0 73.92 0 112 0 C112 51.81 112 103.62 112 157 C75.04 157 38.08 157 0 157 C0 105.19 0 53.38 0 0 Z " fill="#FDFDFD" transform="translate(0,0)"/>
<path d="M0 0 C0.70226141 1.24176695 1.38629109 2.49385599 2.0625 3.75 C2.44535156 4.44609375 2.82820313 5.1421875 3.22265625 5.859375 C4 8 4 8 3.9296875 10.06640625 C2.58390617 12.86540524 0.74357998 13.66458641 -1.9375 15.1875 C-11.67544248 21.11879224 -21.27216695 28.81650084 -25 40 C-25.36759902 43.67962975 -25.71439413 47.35700809 -25.98632812 51.04492188 C-26.52576642 56.76869635 -28.10368156 61.05168256 -31 66 C-31.5775 66.99 -32.155 67.98 -32.75 69 C-33.36875 69.99 -33.36875 69.99 -34 71 C-28.17999416 67.11999611 -25.76517902 62.52760498 -24.30859375 55.8125 C-23.81477752 52.8841352 -23.40124698 49.94247782 -23 47 C-16.4 47.33 -9.8 47.66 -3 48 C-3 65.05176983 -10.33691516 82.26605308 -22 95 C-25.89162567 97.66956029 -28.24779749 98.83862397 -33 98 C-35.93138081 96.30451915 -38.42936882 94.19398192 -41 92 C-41.72445312 91.41992188 -42.44890625 90.83984375 -43.1953125 90.2421875 C-55.15173609 80.28544451 -64.24483699 66.46644226 -67 51 C-67.25328425 48.15872528 -67.28115818 45.35097331 -67.25 42.5 C-67.25773437 41.79230469 -67.26546875 41.08460937 -67.2734375 40.35546875 C-67.24535296 32.67434738 -65.85843927 26.18346816 -61 20 C-56.98677954 17.32451969 -53.71626345 17.41259535 -49 18 C-46.4375 19.5 -46.4375 19.5 -45 21 C-45.57584432 23.38564077 -46.22227595 25.66682784 -47 28 C-46.34 27.34 -45.68 26.68 -45 26 C-44.5359375 25.54238281 -44.071875 25.08476563 -43.59375 24.61328125 C-42.48420925 23.49014318 -41.40251114 22.3390984 -40.34375 21.16796875 C-32.69774736 12.95499557 -23.05720176 7.82942998 -13.0625 3 C-12.44818115 2.69698975 -11.8338623 2.39397949 -11.20092773 2.08178711 C-7.31260618 0.27571874 -4.27077855 -0.31297308 0 0 Z " fill="#060606" transform="translate(88,44)"/>
<path d="M0 0 C2.31 0 4.62 0 7 0 C7 3.3 7 6.6 7 10 C7.99 10 8.98 10 10 10 C10.103125 9.236875 10.20625 8.47375 10.3125 7.6875 C11.04364039 4.82940576 11.76951913 3.84257115 14 2 C15.32 2.66 16.64 3.32 18 4 C17.85691406 5.01320313 17.85691406 5.01320313 17.7109375 6.046875 C17.60007813 6.93890625 17.48921875 7.8309375 17.375 8.75 C17.25898437 9.63171875 17.14296875 10.5134375 17.0234375 11.421875 C16.99792183 14.22859878 17.55156156 15.63384866 19 18 C17.6078125 18.556875 17.6078125 18.556875 16.1875 19.125 C6.5410882 23.29536793 -2.52765142 28.52765142 -10 36 C-13.365563 35.6634437 -15.53849375 34.25932915 -18 32 C-19.05064619 27.85538193 -18.79186031 23.65384847 -16.94140625 19.7890625 C-15.625 17.875 -15.625 17.875 -13 15 C-12.34 15 -11.68 15 -11 15 C-11.15597656 14.21753906 -11.31195313 13.43507813 -11.47265625 12.62890625 C-11.76462891 11.11103516 -11.76462891 11.11103516 -12.0625 9.5625 C-12.25972656 8.55316406 -12.45695312 7.54382812 -12.66015625 6.50390625 C-12.77230469 5.67761719 -12.88445313 4.85132813 -13 4 C-12 3 -12 3 -9.4375 2.9375 C-8.2309375 2.9684375 -8.2309375 2.9684375 -7 3 C-6.34 5.31 -5.68 7.62 -5 10 C-3.35 9.67 -1.7 9.34 0 9 C0 6.03 0 3.06 0 0 Z " fill="#0D0D0D" transform="translate(57,27)"/>
<path d="M0 0 C3.63 0 7.26 0 11 0 C11.33 2.64 11.66 5.28 12 8 C11.01 8 10.02 8 9 8 C9.495 9.051875 9.99 10.10375 10.5 11.1875 C11.80269426 14.2790615 12.6404702 16.61465753 12 20 C10.125 22.0625 10.125 22.0625 8 24 C6.12780169 27.06906795 5.65615305 29.68872808 5.375 33.25 C5.30023438 34.14203125 5.22546875 35.0340625 5.1484375 35.953125 C5.09945312 36.62859375 5.05046875 37.3040625 5 38 C3.948125 38.12375 2.89625 38.2475 1.8125 38.375 C-1.45958771 38.91140782 -4.00536076 39.63880035 -7 41 C-9.13403321 36.73193359 -9.6108072 32.69524843 -9 28 C-7.96231102 25.25022723 -6.53747886 22.78645937 -5.0625 20.25 C-1.30726889 13.36216677 0 7.96687709 0 0 Z " fill="#0D0D0D" transform="translate(31,21)"/>
<path d="M0 0 C4.47419991 2.98279994 4.8641972 6.9065241 6 12 C6.47382955 15.33034485 6.76887883 18.6456966 7 22 C4.06243881 22.0269501 1.12512445 22.04681474 -1.8125 22.0625 C-3.06256836 22.07506836 -3.06256836 22.07506836 -4.33789062 22.08789062 C-5.54155273 22.09272461 -5.54155273 22.09272461 -6.76953125 22.09765625 C-7.87711792 22.10551147 -7.87711792 22.10551147 -9.00708008 22.11352539 C-11 22 -11 22 -14 21 C-13.64860358 14.14776974 -9.83950479 8.77703569 -5.046875 4.08984375 C-3.40495816 2.67819574 -1.70736533 1.33174496 0 0 Z " fill="#0C0C0C" transform="translate(79,67)"/>
<path d="M0 0 C1.65 0.33 3.3 0.66 5 1 C5.64756393 5.0200256 6.14348927 8.92384198 6 13 C3.625 16.125 3.625 16.125 1 18 C-0.2220897 20.4441794 -0.23641068 22.21029872 -0.3125 24.9375 C-0.34988281 25.81277344 -0.38726562 26.68804687 -0.42578125 27.58984375 C-0.2048305 30.12665477 -0.2048305 30.12665477 1.76953125 31.87890625 C3.8941938 33.18591178 3.8941938 33.18591178 6.0703125 32.84765625 C8.72111534 31.68323476 10.53772347 29.74031567 12.671875 27.82421875 C15.65054025 25.4902646 18.8420657 23.61419807 22.125 21.75 C22.72296387 21.4089624 23.32092773 21.0679248 23.93701172 20.71655273 C27.21318095 18.88650152 30.48017107 17.30167258 34 16 C34.495 17.485 34.495 17.485 35 19 C33.91203125 19.52207031 32.8240625 20.04414062 31.703125 20.58203125 C21.11418082 25.82576918 11.41091732 31.5818069 4.3046875 41.32421875 C3.87414062 41.87722656 3.44359375 42.43023437 3 43 C2.34 43 1.68 43 1 43 C1.33 40.69 1.66 38.38 2 36 C-1.14611253 33.90259164 -1.91188078 33.74671781 -5.5 33.8125 C-6.66015625 33.82216797 -6.66015625 33.82216797 -7.84375 33.83203125 C-10.18348849 33.9269435 -10.18348849 33.9269435 -13 35 C-13.495 33.515 -13.495 33.515 -14 32 C-10.3558226 29.5705484 -8.28758728 29.83820425 -4 30 C-4.08701172 29.05640625 -4.08701172 29.05640625 -4.17578125 28.09375 C-4.49451369 22.04694036 -3.68449026 18.42208208 -0.2890625 13.3984375 C0.13632812 12.93695313 0.56171875 12.47546875 1 12 C1.66 12 2.32 12 3 12 C2.7834375 11.38511719 2.566875 10.77023438 2.34375 10.13671875 C2.0653125 9.32847656 1.786875 8.52023438 1.5 7.6875 C1.2215625 6.88699219 0.943125 6.08648437 0.65625 5.26171875 C0 3 0 3 0 0 Z " fill="#D9D9D9" transform="translate(40,29)"/>
<path d="M0 0 C0.66 0.33 1.32 0.66 2 1 C1.34 1.66 0.68 2.32 0 3 C0 3.99 0 4.98 0 6 C-1.5390625 7.25390625 -1.5390625 7.25390625 -3.625 8.5625 C-9.48534193 12.7157441 -13.57905586 18.91161197 -15 26 C-14.01 26 -13.02 26 -12 26 C-12 26.99 -12 27.98 -12 29 C-12.99 29 -13.98 29 -15 29 C-15.02126953 30.14275391 -15.02126953 30.14275391 -15.04296875 31.30859375 C-15.4209384 39.49112589 -17.06067008 45.53076022 -22.5390625 51.74609375 C-24 53 -24 53 -26 53 C-25.5579054 50.12638509 -24.77153141 48.675722 -23.0625 46.25 C-19.4143106 40.50133792 -18.97075425 35.14616509 -18.625 28.5 C-17.84874114 17.45421816 -12.21731157 10.64017716 -4.1484375 3.3203125 C-2.79146927 2.18200266 -1.39997481 1.08498047 0 0 Z " fill="#DEDEDE" transform="translate(80,62)"/>
<path d="M0 0 C2.28460824 8.27564107 2.90070969 19.79552207 -1.3125 27.4375 C-2.9606554 29.88746073 -4.77659631 32.05079623 -7 34 C-7.66 34 -8.32 34 -9 34 C-8.5579054 31.12638509 -7.77153141 29.675722 -6.0625 27.25 C-1.83803265 20.59326358 -1.68814878 13.55083483 -1.24609375 5.85546875 C-1 3 -1 3 0 0 Z " fill="#E2E2E2" transform="translate(63,81)"/>
<path d="M0 0 C2 1 2 1 3 3 C0.21526125 4.53378536 -2.57878338 6.0497558 -5.375 7.5625 C-6.1690625 8.00013672 -6.963125 8.43777344 -7.78125 8.88867188 C-8.54179688 9.29794922 -9.30234375 9.70722656 -10.0859375 10.12890625 C-11.1385376 10.70233765 -11.1385376 10.70233765 -12.21240234 11.28735352 C-12.80230957 11.52252686 -13.3922168 11.7577002 -14 12 C-14.66 11.67 -15.32 11.34 -16 11 C-11.64592545 5.89522294 -6.15201402 2.63516221 0 0 Z " fill="#DFDFDF" transform="translate(72,45)"/>
<path d="M0 0 C2.475 0.495 2.475 0.495 5 1 C5.33 4.96 5.66 8.92 6 13 C5.01 12.67 4.02 12.34 3 12 C2.05078125 10.0390625 2.05078125 10.0390625 1.3125 7.625 C1.06113281 6.83351563 0.80976562 6.04203125 0.55078125 5.2265625 C0 3 0 3 0 0 Z " fill="#CDCDCD" transform="translate(40,29)"/>
<path d="M0 0 C2.475 0.99 2.475 0.99 5 2 C4.40312566 5.34249629 3.26396123 7.46436342 1 10 C0.34 10 -0.32 10 -1 10 C-0.67 6.7 -0.34 3.4 0 0 Z " fill="#E2E2E2" transform="translate(42,62)"/>
<path d="M0 0 C1 3 1 3 0.109375 4.82421875 C-0.33921875 5.43910156 -0.7878125 6.05398437 -1.25 6.6875 C-1.68828125 7.31011719 -2.1265625 7.93273438 -2.578125 8.57421875 C-3.04734375 9.04472656 -3.5165625 9.51523437 -4 10 C-4.99 10 -5.98 10 -7 10 C-5.87548273 7.0280615 -4.77706209 4.66559313 -3 2 C-2.01 2 -1.02 2 0 2 C0 1.34 0 0.68 0 0 Z " fill="#E0E0E0" transform="translate(44,39)"/>
<path d="M0 0 C0.33 0.66 0.66 1.32 1 2 C1.99 2 2.98 2 4 2 C4 2.99 4 3.98 4 5 C3.01 5 2.02 5 1 5 C1 6.98 1 8.96 1 11 C0.67 11 0.34 11 0 11 C-0.19491452 9.54263913 -0.38069358 8.08405407 -0.5625 6.625 C-0.66691406 5.81289062 -0.77132812 5.00078125 -0.87890625 4.1640625 C-1 2 -1 2 0 0 Z " fill="#C8C8C8" transform="translate(64,86)"/>
<path d="M0 0 C0.66 0.33 1.32 0.66 2 1 C1.34 1.66 0.68 2.32 0 3 C0 3.99 0 4.98 0 6 C-1.98 6.99 -1.98 6.99 -4 8 C-3.50168276 4.31245243 -2.89932357 2.39509338 0 0 Z " fill="#CFCFCF" transform="translate(80,62)"/>
<path d="M0 0 C0.99 0.33 1.98 0.66 3 1 C2.67 3.31 2.34 5.62 2 8 C1.01 7.67 0.02 7.34 -1 7 C-0.67 4.69 -0.34 2.38 0 0 Z " fill="#C3C3C3" transform="translate(61,97)"/>
</svg>
